<?xml version="1.0" encoding="UTF-8" standalone="no"?>
<!-- License: PD. Made by paomedia: https://github.com/paomedia/small-n-flat -->

<svg
   width="800px"
   height="800px"
   viewBox="0 0 24 24"
   version="1.1"
   id="svg24"
   sodipodi:docname="logo.svg"
   inkscape:version="1.2.2 (b0a8486541, 2022-12-01)"
   xmlns:inkscape="http://www.inkscape.org/namespaces/inkscape"
   xmlns:sodipodi="http://sodipodi.sourceforge.net/DTD/sodipodi-0.dtd"
   xmlns="http://www.w3.org/2000/svg"
   xmlns:svg="http://www.w3.org/2000/svg">
  <defs
     id="defs28">
    <rect
       x="73.106462"
       y="312.97669"
       width="116.27383"
       height="122.32521"
       id="rect1038" />
  </defs>
  <sodipodi:namedview
     id="namedview26"
     pagecolor="#505050"
     bordercolor="#eeeeee"
     borderopacity="1"
     inkscape:showpageshadow="0"
     inkscape:pageopacity="0"
     inkscape:pagecheckerboard="0"
     inkscape:deskcolor="#505050"
     showgrid="false"
     inkscape:zoom="0.295"
     inkscape:cx="172.88136"
     inkscape:cy="735.59322"
     inkscape:window-width="1302"
     inkscape:window-height="843"
     inkscape:window-x="0"
     inkscape:window-y="0"
     inkscape:window-maximized="1"
     inkscape:current-layer="layer2" />
  <g
     inkscape:groupmode="layer"
     id="layer2"
     inkscape:label="bg2">
    <rect
       style="fill:#008080;fill-opacity:1;stroke:#4ecbff;stroke-width:0.9;stroke-linecap:round;stroke-linejoin:round;stroke-opacity:1"
       id="rect1046"
       width="23.593618"
       height="23.347723"
       x="0.23358046"
       y="0.36228815" />
  </g>
  <g
     transform="translate(0 -1028.4)"
     id="g22">
    <g
       transform="matrix(1.0607 1.0607 -1.0607 1.0607 1146.8 34.926)"
       id="g20">
      <path
         d="m-63 1003.4v11.3 0.7 1l2 2 2-2v-1-0.7-11.3h-4z"
         fill="#ecf0f1"
         id="path2" />
      <path
         d="m-61 1003.4v15l2-2v-1-0.7-11.3h-2z"
         fill="#bdc3c7"
         id="path4" />
      <rect
         height="11"
         width="4"
         y="1004.4"
         x="-63"
         fill="#e67e22"
         id="rect6" />
      <path
         d="m-61 1000.4c-1.105 0-2 0.9-2 2v1h4v-1c0-1.1-0.895-2-2-2z"
         fill="#7f8c8d"
         id="path8" />
      <g
         transform="translate(-7,1)"
         id="g14">
        <path
           d="m-55.406 1016 1.406 1.4 1.406-1.4h-1.406-1.406z"
           fill="#34495e"
           id="path10" />
        <path
           d="m-54 1016v1.4l1.406-1.4h-1.406z"
           fill="#2c3e50"
           id="path12" />
      </g>
      <path
         d="m-61 1000.4c-1.105 0-2 0.9-2 2v1h2v-3z"
         fill="#95a5a6"
         id="path16" />
      <rect
         height="11"
         width="2"
         y="1004.4"
         x="-61"
         fill="#d35400"
         id="rect18" />
    </g>
  </g>
  <path
     style="fill:none;stroke:#000000;stroke-width:0.89999997;stroke-linecap:butt;stroke-linejoin:round;stroke-opacity:1;stroke-dasharray:none"
     d="m 8.3652012,21.97206 5.8716898,-2.686175 4.0384,0.630826 4.260858,-3.832627"
     id="path426" />
  <ellipse
     style="fill:none;stroke:#ffe94e;stroke-width:0.9;stroke-linecap:round;stroke-linejoin:round;stroke-dasharray:none"
     id="path982"
     cx="9.3168039"
     cy="5.0621028"
     rx="1.7000132"
     ry="1.7355667" />
  <text
     xml:space="preserve"
     transform="matrix(0.24846661,0,0,0.21144506,-17.340432,-60.948685)"
     id="text1036"
     style="font-style:normal;font-weight:normal;font-size:40px;line-height:1.25;font-family:sans-serif;white-space:pre;shape-inside:url(#rect1038);display:inline;fill:#000000;fill-opacity:1;stroke:none"><tspan
       x="73.107422"
       y="349.37157"
       id="tspan4033">T</tspan></text>
</svg>
